<svg width="10" height="8" viewBox="0 0 10 8" fill="none" xmlns="http://www.w3.org/2000/svg">
<path d="M10 0.705371C10 0.518282 9.93128 0.338844 9.80895 0.20647C9.68646 0.0742605 9.52042 0 9.3473 0C9.17418 0 9.00814 0.0742605 8.88565 0.20647L3.25008 6.29565L1.09863 3.97176C0.974787 3.84705 0.810993 3.77916 0.641751 3.78239C0.472508 3.78562 0.311032 3.85971 0.191341 3.98906C0.0716494 4.11841 0.00308786 4.29292 0.000101777 4.47582C-0.00288431 4.65872 0.0599379 4.83573 0.175332 4.96956L2.78843 7.79353C2.91092 7.92574 3.07696 8 3.25008 8C3.42319 8 3.58923 7.92574 3.71172 7.79353L9.80895 1.20427C9.93128 1.0719 10 0.892459 10 0.705371Z" fill="white"/>
</svg>
