<svg width="113" height="64" viewBox="0 0 113 64" fill="none" xmlns="http://www.w3.org/2000/svg">
<mask id="mask0_26_428" style="mask-type:luminance" maskUnits="userSpaceOnUse" x="0" y="1" width="113" height="62">
<path d="M112.375 1H0V63H112.375V1Z" fill="white"/>
</mask>
<g mask="url(#mask0_26_428)">
<path fill-rule="evenodd" clip-rule="evenodd" d="M31.3261 1.06671C48.6435 1.06671 62.6821 14.8893 62.6821 31.9403C62.6821 48.9913 48.6435 62.814 31.3261 62.814C14.0086 62.814 -0.0300369 48.9913 -0.0300369 31.9403C-0.0300369 24.9391 2.33826 18.4837 6.3267 13.3054L15.067 21.93C13.2198 24.8318 12.1513 28.2623 12.1513 31.9403C12.1513 42.3678 20.7356 50.82 31.3261 50.82C41.9165 50.82 50.5007 42.3678 50.5007 31.9403C50.5007 21.5128 41.9165 13.0606 31.3261 13.0606C28.1813 13.0606 25.2137 13.8058 22.5947 15.127L13.7299 6.38355C18.7472 3.02782 24.8037 1.06671 31.3261 1.06671ZM7.24101 12.1731C7.55304 11.8052 7.87331 11.4443 8.20211 11.091L16.8202 19.5953C16.5015 19.9581 16.1965 20.333 15.9059 20.7188L7.24101 12.1731ZM9.2128 10.0545C9.55729 9.71715 9.90896 9.38731 10.2688 9.06596L18.8889 17.5721C18.52 17.8823 18.1626 18.2056 17.8185 18.542L9.2128 10.0545ZM11.3745 8.12346C11.7509 7.81708 12.1347 7.5192 12.5255 7.23028L21.273 15.8614C20.8521 16.117 20.4427 16.3881 20.0442 16.6743L11.3745 8.12346Z" fill="#34B1DA"/>
<path fill-rule="evenodd" clip-rule="evenodd" d="M78.8094 43.1825H82.9456V46.3916L78.8094 48.9594V43.1825ZM82.9456 47.4207V52.7638H83.1785L89.6904 43.1825H94.2275L87.8226 52.8836L95.4849 63.1354H90.4352L83.1785 53.4103H82.9456V60.3116L78.8094 57.8988V49.9879L82.9456 47.4207ZM82.9456 61.3227V63.1354H78.8094V58.9105L82.9456 61.3227ZM98.0937 43.2544H104.01L100.407 46.7756H98.0937V43.2544ZM105.264 43.2544H112.626L104.428 59.5664H112.812V63.2073H106.176L101.612 55.8319L106.105 46.7756H101.662L105.264 43.2544ZM105.141 63.2073H97.9532L101.152 56.7604L105.141 63.2073Z" fill="#34B1DA"/>
<path fill-rule="evenodd" clip-rule="evenodd" d="M19.9511 23.1837H23.4886V26.1232L19.9511 28.3188V23.1837ZM23.4886 27.1517V34.3258C23.4886 34.9456 23.751 35.4705 24.2793 35.9008C24.8046 36.3274 25.4283 36.5426 26.1508 36.5426C26.9382 36.5426 27.623 36.3274 28.2047 35.8975C28.5974 35.6072 28.858 35.2698 28.9864 34.8831L30.8092 37.8277C30.7357 37.8907 30.6599 37.9522 30.5821 38.0133C29.3003 39.0141 27.7862 39.5159 26.0368 39.5159C24.3633 39.5159 22.9293 39.0009 21.7391 37.9673C20.5481 36.934 19.9511 35.6922 19.9511 34.2347V29.3472L23.4886 27.1517ZM29.0794 33.3603V23.1837H32.5033V34.3231C32.5033 35.4027 32.152 36.3589 31.4487 37.1891L29.0794 33.3603ZM46.7013 39.5548H46.0838L43.4378 35.2783V34.2737H42.8159L41.0852 31.4766H43.4378V28.23C43.4378 27.6009 43.1491 27.076 42.5707 26.6522C41.9966 26.2317 41.3156 26.0198 40.5354 26.0198C39.8282 26.0198 39.2198 26.2349 38.7063 26.6687C38.1924 27.1018 37.9381 27.6238 37.9381 28.23V31.4766H40.0502L41.7809 34.2737H37.9381V39.5548H34.56V28.5039V28.2596C34.56 26.9975 35.1536 25.86 36.3399 24.8428C37.5272 23.8293 38.9196 23.3205 40.5168 23.3205C42.1521 23.3205 43.5942 23.8162 44.8373 24.8038C46.0814 25.7914 46.7013 26.9327 46.7013 28.2267V39.5548ZM45.0492 39.5548H43.4378V36.9505L45.0492 39.5548ZM49.3488 39.5159V34.705L52.703 31.4268V39.5159H49.3488ZM49.3488 33.4792V28.3638C49.3488 26.9393 49.961 25.7294 51.1817 24.7352C52.4067 23.741 53.8597 23.2424 55.5447 23.2424C56.8236 23.2424 57.9779 23.5079 59.0072 24.0398L56.7344 26.2613C56.3907 26.1396 56.02 26.0785 55.6206 26.0785C54.7988 26.0785 54.1069 26.336 53.5481 26.8543C52.985 27.3692 52.703 27.9922 52.703 28.719V30.201L49.3488 33.4792ZM59.7831 24.5073C59.8767 24.5721 59.9683 24.6394 60.0594 24.7094C61.3336 25.6872 61.9692 26.8932 61.9692 28.331V39.5159H58.5V28.4907C58.5 27.8193 58.2151 27.2489 57.6482 26.7795L57.5427 26.6968L59.7831 24.5073ZM64.1366 23.1837H72.1349L67.5658 26.0198H64.1366V23.1837ZM73.7922 23.1837H75.4109V26.0198H71.4854V37.0994L67.9479 35.0363V26.811L73.7922 23.1837ZM71.4854 38.111V39.5548H67.9479V36.0478L71.4854 38.111ZM77.7844 23.1837H81.3214V34.3258C81.3214 34.7788 81.4617 35.181 81.7437 35.5329L79.4054 37.8178C78.3256 36.8151 77.7844 35.6227 77.7844 34.2347V23.1837ZM82.4065 36.1109C82.8661 36.3979 83.3919 36.5426 83.9841 36.5426C84.7715 36.5426 85.4563 36.3274 86.038 35.8975C86.6202 35.4671 86.9127 34.9324 86.9127 34.2902V31.7069L90.3361 28.3611V34.3231C90.3361 35.7801 89.6971 37.012 88.4154 38.0133C87.1336 39.0141 85.6195 39.5159 83.8701 39.5159C82.4328 39.5159 81.172 39.1362 80.0907 38.3742L82.4065 36.1109ZM86.9127 30.481V23.1837H90.3361V27.1347L86.9127 30.481ZM93.2117 28.0476C93.2117 26.7175 93.7704 25.5828 94.8847 24.6474C95.0656 24.4956 95.2526 24.3561 95.4454 24.2287L97.1637 26.7819C96.8116 27.1446 96.6346 27.574 96.6346 28.0735V39.5159H93.2117V28.0476ZM96.217 23.7997C97.0252 23.4285 97.9241 23.2424 98.9132 23.2424C99.8026 23.2424 100.564 23.3627 101.206 23.601C101.846 23.8387 102.462 24.2432 103.059 24.807C103.652 24.2301 104.292 23.826 104.968 23.5911C105.645 23.3595 106.451 23.2424 107.391 23.2424C108.859 23.2424 110.119 23.6888 111.169 24.5787C112.222 25.472 112.747 26.5479 112.747 27.8095V31.7525L109.323 35.0978V27.8324C109.323 27.3236 109.099 26.8965 108.65 26.5545C108.202 26.212 107.666 26.0395 107.045 26.0395C106.399 26.0395 105.847 26.2449 105.384 26.6522C104.922 27.0595 104.691 27.5519 104.691 28.1289V36.3951L101.085 31.0355V27.8451C101.085 27.3433 100.868 26.9229 100.438 26.5836C100.009 26.2481 99.4877 26.0785 98.8784 26.0785C98.5161 26.0785 98.1838 26.1442 97.8844 26.2768L96.217 23.7997ZM112.747 32.9784V39.5159H109.323V36.3237L112.747 32.9784ZM104.691 37.971V39.5159H101.085V32.6114L104.691 37.971Z" fill="white"/>
<path fill-rule="evenodd" clip-rule="evenodd" d="M7.24104 12.1731C7.55307 11.8052 7.87334 11.4443 8.20214 11.091L16.8202 19.5953C16.5015 19.9581 16.1965 20.333 15.9059 20.7188L7.24104 12.1731ZM31.3261 1.10992C42.1999 1.10992 51.7786 6.56869 57.3919 14.8536L49.9291 22.236C46.394 15.6801 39.3902 11.2141 31.3261 11.2141C27.6449 11.2141 24.1862 12.1448 21.1761 13.7795L13.7118 6.45032C18.7305 3.08047 24.7937 1.10992 31.3261 1.10992ZM40.9764 46.6971L48.1253 39.6619L50.0035 41.5061L50.0074 41.4976L57.5232 48.8298L57.4989 48.8659L64.9727 56.2045L57.7952 63.267L50.6335 56.2111C45.3142 60.32 38.611 62.7708 31.3257 62.7708C14.0325 62.7708 0.0134811 48.9674 0.0134811 31.9403C0.0134811 24.9498 2.37802 18.5035 6.36065 13.3317L13.7181 20.5802C11.5421 23.8428 10.2755 27.746 10.2755 31.9403C10.2755 43.3869 19.7002 52.6665 31.3257 52.6665C35.7751 52.6665 39.9009 51.3068 43.3004 48.9872L40.9764 46.6971ZM9.21284 10.0545C9.55733 9.71714 9.90896 9.3873 10.2688 9.06595L18.8889 17.5721C18.52 17.8823 18.1626 18.2056 17.8185 18.542L9.21284 10.0545ZM11.3745 8.12347C11.7509 7.81709 12.1347 7.51919 12.5255 7.23027L21.273 15.8614C20.8521 16.117 20.4427 16.3881 20.0442 16.6743L11.3745 8.12347Z" fill="white"/>
</g>
</svg>
