<svg width="113" height="64" viewBox="0 0 113 64" fill="none" xmlns="http://www.w3.org/2000/svg">
<mask id="mask0_26_553" style="mask-type:luminance" maskUnits="userSpaceOnUse" x="0" y="1" width="113" height="62">
<path d="M112.375 1H0V63H112.375V1Z" fill="white"/>
</mask>
<g mask="url(#mask0_26_553)">
<path fill-rule="evenodd" clip-rule="evenodd" d="M31.3261 1.06665C48.6435 1.06665 62.6821 14.8893 62.6821 31.9402C62.6821 48.9913 48.6435 62.8139 31.3261 62.8139C14.0086 62.8139 -0.0300369 48.9913 -0.0300369 31.9402C-0.0300369 24.939 2.33826 18.4836 6.3267 13.3053L15.067 21.93C13.2198 24.8318 12.1513 28.2622 12.1513 31.9402C12.1513 42.3678 20.7356 50.82 31.3261 50.82C41.9165 50.82 50.5007 42.3678 50.5007 31.9402C50.5007 21.5128 41.9165 13.0606 31.3261 13.0606C28.1813 13.0606 25.2137 13.8057 22.5947 15.127L13.7299 6.38349C18.7472 3.02776 24.8037 1.06665 31.3261 1.06665ZM7.24101 12.173C7.55304 11.8051 7.87331 11.4443 8.20211 11.091L16.8202 19.5953C16.5015 19.958 16.1965 20.333 15.9059 20.7187L7.24101 12.173ZM9.2128 10.0545C9.55729 9.71708 9.90896 9.38725 10.2688 9.06589L18.8889 17.5721C18.52 17.8822 18.1626 18.2055 17.8185 18.5419L9.2128 10.0545ZM11.3745 8.1234C11.7509 7.81702 12.1347 7.51914 12.5255 7.23022L21.273 15.8613C20.8521 16.117 20.4427 16.388 20.0442 16.6742L11.3745 8.1234Z" fill="#DBDBDB"/>
<path fill-rule="evenodd" clip-rule="evenodd" d="M78.8094 43.1824H82.9456V46.3915L78.8094 48.9592V43.1824ZM82.9456 47.4205V52.7637H83.1785L89.6904 43.1824H94.2275L87.8226 52.8835L95.4849 63.1352H90.4352L83.1785 53.4102H82.9456V60.3114L78.8094 57.8987V49.9878L82.9456 47.4205ZM82.9456 61.3225V63.1352H78.8094V58.9103L82.9456 61.3225ZM98.0937 43.2543H104.01L100.407 46.7754H98.0937V43.2543ZM105.264 43.2543H112.626L104.428 59.5662H112.812V63.2071H106.176L101.612 55.8318L106.105 46.7754H101.662L105.264 43.2543ZM105.141 63.2071H97.9532L101.152 56.7603L105.141 63.2071Z" fill="#DBDBDB"/>
<path fill-rule="evenodd" clip-rule="evenodd" d="M19.9511 23.1836H23.4886V26.1231L19.9511 28.3187V23.1836ZM23.4886 27.1516V34.3258C23.4886 34.9455 23.751 35.4704 24.2793 35.9007C24.8046 36.3273 25.4283 36.5425 26.1508 36.5425C26.9382 36.5425 27.623 36.3273 28.2047 35.8974C28.5974 35.6071 28.858 35.2697 28.9864 34.883L30.8092 37.8276C30.7357 37.8906 30.6599 37.9521 30.5821 38.0132C29.3003 39.014 27.7862 39.5158 26.0368 39.5158C24.3633 39.5158 22.9293 39.0008 21.7391 37.9672C20.5481 36.934 19.9511 35.6921 19.9511 34.2346V29.3472L23.4886 27.1516ZM29.0794 33.3602V23.1836H32.5033V34.323C32.5033 35.4027 32.152 36.3588 31.4487 37.189L29.0794 33.3602ZM46.7013 39.5547H46.0838L43.4378 35.2782V34.2736H42.8159L41.0852 31.4765H43.4378V28.2299C43.4378 27.6008 43.1491 27.076 42.5707 26.6521C41.9966 26.2316 41.3156 26.0197 40.5354 26.0197C39.8282 26.0197 39.2198 26.2349 38.7063 26.6686C38.1924 27.1017 37.9381 27.6237 37.9381 28.2299V31.4765H40.0502L41.7809 34.2736H37.9381V39.5547H34.56V28.5038V28.2595C34.56 26.9975 35.1536 25.8599 36.3399 24.8427C37.5272 23.8293 38.9196 23.3204 40.5168 23.3204C42.1521 23.3204 43.5942 23.8161 44.8373 24.8037C46.0814 25.7913 46.7013 26.9326 46.7013 28.2266V39.5547ZM45.0492 39.5547H43.4378V36.9504L45.0492 39.5547ZM49.3488 39.5158V34.7049L52.703 31.4267V39.5158H49.3488ZM49.3488 33.4791V28.3637C49.3488 26.9392 49.961 25.7293 51.1817 24.7351C52.4067 23.7409 53.8597 23.2424 55.5447 23.2424C56.8236 23.2424 57.9779 23.5078 59.0072 24.0397L56.7344 26.2612C56.3907 26.1395 56.02 26.0784 55.6206 26.0784C54.7988 26.0784 54.1069 26.3359 53.5481 26.8542C52.985 27.3691 52.703 27.9921 52.703 28.719V30.2009L49.3488 33.4791ZM59.7831 24.5072C59.8767 24.572 59.9683 24.6393 60.0594 24.7093C61.3336 25.6871 61.9692 26.8931 61.9692 28.3309V39.5158H58.5V28.4906C58.5 27.8192 58.2151 27.2488 57.6482 26.7794L57.5427 26.6967L59.7831 24.5072ZM64.1366 23.1836H72.1349L67.5658 26.0197H64.1366V23.1836ZM73.7922 23.1836H75.4109V26.0197H71.4854V37.0994L67.9479 35.0362V26.8109L73.7922 23.1836ZM71.4854 38.1109V39.5547H67.9479V36.0477L71.4854 38.1109ZM77.7844 23.1836H81.3214V34.3258C81.3214 34.7787 81.4617 35.1809 81.7437 35.5328L79.4054 37.8177C78.3256 36.815 77.7844 35.6226 77.7844 34.2346V23.1836ZM82.4065 36.1108C82.8661 36.3978 83.3919 36.5425 83.9841 36.5425C84.7715 36.5425 85.4563 36.3273 86.038 35.8974C86.6202 35.467 86.9127 34.9323 86.9127 34.2901V31.7068L90.3361 28.361V34.323C90.3361 35.78 89.6971 37.0119 88.4154 38.0132C87.1336 39.014 85.6195 39.5158 83.8701 39.5158C82.4328 39.5158 81.172 39.1361 80.0907 38.3741L82.4065 36.1108ZM86.9127 30.4809V23.1836H90.3361V27.1346L86.9127 30.4809ZM93.2117 28.0475C93.2117 26.7174 93.7704 25.5827 94.8847 24.6473C95.0656 24.4955 95.2526 24.356 95.4454 24.2286L97.1637 26.7818C96.8116 27.1445 96.6346 27.574 96.6346 28.0734V39.5158H93.2117V28.0475ZM96.217 23.7996C97.0252 23.4284 97.9241 23.2424 98.9132 23.2424C99.8026 23.2424 100.564 23.3626 101.206 23.6009C101.846 23.8386 102.462 24.2431 103.059 24.8069C103.652 24.23 104.292 23.8259 104.968 23.591C105.645 23.3594 106.451 23.2424 107.391 23.2424C108.859 23.2424 110.119 23.6888 111.169 24.5786C112.222 25.4719 112.747 26.5478 112.747 27.8094V31.7524L109.323 35.0977V27.8324C109.323 27.3235 109.099 26.8964 108.65 26.5544C108.202 26.2119 107.666 26.0394 107.045 26.0394C106.399 26.0394 105.847 26.2448 105.384 26.6521C104.922 27.0595 104.691 27.5518 104.691 28.1288V36.395L101.085 31.0354V27.845C101.085 27.3432 100.868 26.9228 100.438 26.5835C100.009 26.248 99.4877 26.0784 98.8784 26.0784C98.5161 26.0784 98.1838 26.1441 97.8844 26.2767L96.217 23.7996ZM112.747 32.9783V39.5158H109.323V36.3236L112.747 32.9783ZM104.691 37.9709V39.5158H101.085V32.6113L104.691 37.9709Z" fill="#34B1DA"/>
<path fill-rule="evenodd" clip-rule="evenodd" d="M7.24104 12.173C7.55307 11.8051 7.87334 11.4443 8.20214 11.091L16.8202 19.5953C16.5015 19.958 16.1965 20.333 15.9059 20.7187L7.24104 12.173ZM31.3261 1.10986C42.1999 1.10986 51.7786 6.56863 57.3919 14.8535L49.9291 22.2359C46.394 15.68 39.3902 11.214 31.3261 11.214C27.6449 11.214 24.1862 12.1448 21.1761 13.7795L13.7118 6.45026C18.7305 3.08041 24.7937 1.10986 31.3261 1.10986ZM40.9764 46.697L48.1253 39.6618L50.0035 41.5061L50.0074 41.4976L57.5232 48.8297L57.4989 48.8659L64.9727 56.2045L57.7952 63.2669L50.6335 56.211C45.3142 60.3199 38.611 62.7707 31.3257 62.7707C14.0325 62.7707 0.0134811 48.9673 0.0134811 31.9402C0.0134811 24.9498 2.37802 18.5034 6.36065 13.3317L13.7181 20.5801C11.5421 23.8428 10.2755 27.7459 10.2755 31.9402C10.2755 43.3869 19.7002 52.6665 31.3257 52.6665C35.7751 52.6665 39.9009 51.3067 43.3004 48.9871L40.9764 46.697ZM9.21284 10.0545C9.55733 9.71708 9.90896 9.38724 10.2688 9.06589L18.8889 17.5721C18.52 17.8823 18.1626 18.2055 17.8185 18.5419L9.21284 10.0545ZM11.3745 8.1234C11.7509 7.81703 12.1347 7.51913 12.5255 7.23021L21.273 15.8613C20.8521 16.117 20.4427 16.3881 20.0442 16.6742L11.3745 8.1234Z" fill="#34B1DA"/>
</g>
</svg>
